<svg width="223" height="222" viewBox="0 0 223 222" fill="none" xmlns="http://www.w3.org/2000/svg">
<path d="M111.28 221.741C172.471 221.741 222.077 172.145 222.077 110.964C222.077 49.7839 172.471 0.187439 111.28 0.187439C50.0884 0.187439 0.48291 49.7839 0.48291 110.964C0.48291 172.145 50.0884 221.741 111.28 221.741Z" fill="#F6EFCB"/>
<path d="M11 162L43.093 118.374L45.1477 120.443L62.322 98.1075L74.181 112.523L79.0943 108.363L80.3227 100.154L103.84 64.604L109.959 61L122.443 81.2667L136.134 86.072L144.531 102.557L155.765 104.626L157.395 114.259L169.678 129.364L160.276 114.259L171.934 101.889L189.51 134.525L212 162L186.652 138.997L170.907 115.972L176.021 132.456L181.738 141.733L165.39 135.549L152.303 121.467L145.96 109.787L147.591 122.49L157.618 137.618L142.878 124.203L130.416 92.6126L125.503 89.1643L126.932 99.8205L133.878 119.064L119.16 97.0619L120.009 90.1877L107.1 74.3925L104.845 79.1978L105.872 103.602L116.101 124.203L97.296 100.844L100.557 119.754L122.041 154.458L89.323 123.869L83.7843 104.982L84.4097 116.995L79.6973 122.49L82.154 132.812L93.41 145.182L76.4367 132.456L60.4907 108.363L50.061 125.938L46.175 145.515L28.7773 147.584L11 162Z" fill="#5A8684"/>
</svg>
