<svg width="518" height="391" viewBox="0 0 518 391" fill="none" xmlns="http://www.w3.org/2000/svg">
<path d="M442.091 220.835L456.352 182.447L478.292 164.898L456.352 147.349L442.091 108.961L427.83 147.349L405.89 164.898L427.83 182.447L442.091 220.835ZM436.606 153.93L442.091 139.671L447.576 153.93L461.837 164.898L447.576 175.866L442.091 190.124L436.606 175.866L422.345 164.898L436.606 153.93Z" fill="#9DC3B8"/>
<path d="M171.132 54.1211C163.453 60.7019 157.968 69.4762 154.677 79.3475C153.58 82.6378 154.677 84.8315 157.968 85.9283C161.259 87.0251 163.453 85.9282 164.55 82.6378C168.938 69.4762 177.714 59.6051 189.781 54.1211C202.945 47.5403 218.303 47.5403 232.564 53.0243C247.922 58.5083 257.795 69.4763 262.183 85.9283C263.28 88.1219 265.474 90.3155 267.668 90.3155H268.765C272.056 89.2187 273.153 85.9283 272.056 83.7347C266.571 63.9923 253.407 50.8307 235.855 43.1531C219.4 36.5723 200.751 37.6691 185.393 44.2499C183.199 45.3467 181.005 46.4435 178.811 47.5403C164.55 22.3139 144.804 6.95867 115.185 1.47467C89.954 -2.91253 63.626 2.57146 42.783 16.8299C19.746 32.1851 4.388 56.3146 0 84.8315C0 88.1218 1.09702 90.3155 4.38802 91.4123H5.485C7.679 91.4123 9.873 89.2187 10.97 87.0251C15.358 61.7987 28.522 40.9595 49.365 26.7011C68.014 13.5395 91.051 9.15227 114.088 12.4427C140.416 17.9267 157.968 29.9915 171.132 54.1211Z" fill="#44ACAF"/>
<path d="M498.038 94.7027C509.008 94.7027 517.784 85.9283 517.784 74.9603C517.784 63.9923 509.008 55.2178 498.038 55.2178C487.068 55.2178 478.292 63.9923 478.292 74.9603C478.292 85.9283 487.068 94.7027 498.038 94.7027Z" fill="#5A8684"/>
<path d="M127.252 351.354C116.282 351.354 107.506 360.128 107.506 371.096C107.506 382.064 116.282 390.839 127.252 390.839C138.222 390.839 146.998 382.064 146.998 371.096C146.998 360.128 138.222 351.354 127.252 351.354Z" fill="#768167"/>
<path d="M263.28 355.741C324.471 355.741 374.077 306.145 374.077 244.964C374.077 183.784 324.471 134.187 263.28 134.187C202.088 134.187 152.483 183.784 152.483 244.964C152.483 306.145 202.088 355.741 263.28 355.741Z" fill="#F6EFCB"/>
<path d="M163 296L195.093 252.374L197.148 254.443L214.322 232.107L226.181 246.523L231.094 242.363L232.323 234.154L255.84 198.604L261.959 195L274.443 215.267L288.134 220.072L296.531 236.557L307.765 238.626L309.395 248.259L321.678 263.364L312.276 248.259L323.934 235.889L341.51 268.525L364 296L338.652 272.997L322.907 249.972L328.021 266.456L333.738 275.733L317.39 269.549L304.303 255.467L297.96 243.787L299.591 256.49L309.618 271.618L294.878 258.203L282.416 226.613L277.503 223.164L278.932 233.82L285.878 253.064L271.16 231.062L272.009 224.188L259.1 208.393L256.845 213.198L257.872 237.602L268.101 258.203L249.296 234.844L252.557 253.754L274.041 288.458L241.323 257.869L235.784 238.982L236.41 250.995L231.697 256.49L234.154 266.812L245.41 279.182L228.437 266.456L212.491 242.363L202.061 259.938L198.175 279.515L180.777 281.584L163 296Z" fill="#5A8684"/>
</svg>
